<?xml version="1.0" encoding="utf-8" standalone="no"?>
<!DOCTYPE svg PUBLIC "-//W3C//DTD SVG 1.1//EN"
  "http://www.w3.org/Graphics/SVG/1.1/DTD/svg11.dtd">
<svg height="360pt" version="1.1" viewBox="0 0 432 360" width="432pt" xmlns="http://www.w3.org/2000/svg" xmlns:xlink="http://www.w3.org/1999/xlink">
 <metadata>
  <rdf:RDF xmlns:cc="http://creativecommons.org/ns#" xmlns:dc="http://purl.org/dc/elements/1.1/" xmlns:rdf="http://www.w3.org/1999/02/22-rdf-syntax-ns#">
   <cc:Work>
    <dc:type rdf:resource="http://purl.org/dc/dcmitype/StillImage"/>
    <dc:date>2022-01-16T15:48:21.393430</dc:date>
    <dc:format>image/svg+xml</dc:format>
    <dc:creator>
     <cc:Agent>
      <dc:title>Matplotlib v3.4.2, https://matplotlib.org/</dc:title>
     </cc:Agent>
    </dc:creator>
   </cc:Work>
  </rdf:RDF>
 </metadata>
 <defs>
  <style type="text/css">*{stroke-linecap:butt;stroke-linejoin:round;}</style>
 </defs>
 <g id="figure_1">
  <g id="patch_1">
   <path d="M 0 360 
L 432 360 
L 432 0 
L 0 0 
z
" style="fill:#ffffff;"/>
  </g>
  <g id="axes_1">
   <g id="patch_2">
    <path d="M 51.32 293.223593 
L 421.2 293.223593 
L 421.2 27.6 
L 51.32 27.6 
z
" style="fill:#e5e5e5;"/>
   </g>
   <g id="matplotlib.axis_1">
    <g id="xtick_1">
     <g id="line2d_1">
      <path clip-path="url(#p15db9f2732)" d="M 91.322696 293.223593 
L 91.322696 27.6 
" style="fill:none;stroke:#ffffff;stroke-linecap:square;stroke-width:0.8;"/>
     </g>
     <g id="line2d_2">
      <defs>
       <path d="M 0 0 
L 0 3.5 
" id="ma0d33badc3" style="stroke:#555555;stroke-width:0.8;"/>
      </defs>
      <g>
       <use style="fill:#555555;stroke:#555555;stroke-width:0.8;" x="91.322696" xlink:href="#ma0d33badc3" y="293.223593"/>
      </g>
     </g>
     <g id="text_1">
      <!-- SLM1042 #1 -->
      <g style="fill:#555555;" transform="translate(30.547423 329.225289)rotate(-20)scale(0.1 -0.1)">
       <defs>
        <path d="M 3425 4513 
L 3425 3897 
Q 3066 4069 2747 4153 
Q 2428 4238 2131 4238 
Q 1616 4238 1336 4038 
Q 1056 3838 1056 3469 
Q 1056 3159 1242 3001 
Q 1428 2844 1947 2747 
L 2328 2669 
Q 3034 2534 3370 2195 
Q 3706 1856 3706 1288 
Q 3706 609 3251 259 
Q 2797 -91 1919 -91 
Q 1588 -91 1214 -16 
Q 841 59 441 206 
L 441 856 
Q 825 641 1194 531 
Q 1563 422 1919 422 
Q 2459 422 2753 634 
Q 3047 847 3047 1241 
Q 3047 1584 2836 1778 
Q 2625 1972 2144 2069 
L 1759 2144 
Q 1053 2284 737 2584 
Q 422 2884 422 3419 
Q 422 4038 858 4394 
Q 1294 4750 2059 4750 
Q 2388 4750 2728 4690 
Q 3069 4631 3425 4513 
z
" id="DejaVuSans-53" transform="scale(0.015625)"/>
        <path d="M 628 4666 
L 1259 4666 
L 1259 531 
L 3531 531 
L 3531 0 
L 628 0 
L 628 4666 
z
" id="DejaVuSans-4c" transform="scale(0.015625)"/>
        <path d="M 628 4666 
L 1569 4666 
L 2759 1491 
L 3956 4666 
L 4897 4666 
L 4897 0 
L 4281 0 
L 4281 4097 
L 3078 897 
L 2444 897 
L 1241 4097 
L 1241 0 
L 628 0 
L 628 4666 
z
" id="DejaVuSans-4d" transform="scale(0.015625)"/>
        <path d="M 794 531 
L 1825 531 
L 1825 4091 
L 703 3866 
L 703 4441 
L 1819 4666 
L 2450 4666 
L 2450 531 
L 3481 531 
L 3481 0 
L 794 0 
L 794 531 
z
" id="DejaVuSans-31" transform="scale(0.015625)"/>
        <path d="M 2034 4250 
Q 1547 4250 1301 3770 
Q 1056 3291 1056 2328 
Q 1056 1369 1301 889 
Q 1547 409 2034 409 
Q 2525 409 2770 889 
Q 3016 1369 3016 2328 
Q 3016 3291 2770 3770 
Q 2525 4250 2034 4250 
z
M 2034 4750 
Q 2819 4750 3233 4129 
Q 3647 3509 3647 2328 
Q 3647 1150 3233 529 
Q 2819 -91 2034 -91 
Q 1250 -91 836 529 
Q 422 1150 422 2328 
Q 422 3509 836 4129 
Q 1250 4750 2034 4750 
z
" id="DejaVuSans-30" transform="scale(0.015625)"/>
        <path d="M 2419 4116 
L 825 1625 
L 2419 1625 
L 2419 4116 
z
M 2253 4666 
L 3047 4666 
L 3047 1625 
L 3713 1625 
L 3713 1100 
L 3047 1100 
L 3047 0 
L 2419 0 
L 2419 1100 
L 313 1100 
L 313 1709 
L 2253 4666 
z
" id="DejaVuSans-34" transform="scale(0.015625)"/>
        <path d="M 1228 531 
L 3431 531 
L 3431 0 
L 469 0 
L 469 531 
Q 828 903 1448 1529 
Q 2069 2156 2228 2338 
Q 2531 2678 2651 2914 
Q 2772 3150 2772 3378 
Q 2772 3750 2511 3984 
Q 2250 4219 1831 4219 
Q 1534 4219 1204 4116 
Q 875 4013 500 3803 
L 500 4441 
Q 881 4594 1212 4672 
Q 1544 4750 1819 4750 
Q 2544 4750 2975 4387 
Q 3406 4025 3406 3419 
Q 3406 3131 3298 2873 
Q 3191 2616 2906 2266 
Q 2828 2175 2409 1742 
Q 1991 1309 1228 531 
z
" id="DejaVuSans-32" transform="scale(0.015625)"/>
        <path id="DejaVuSans-20" transform="scale(0.015625)"/>
        <path d="M 3272 2816 
L 2363 2816 
L 2100 1772 
L 3016 1772 
L 3272 2816 
z
M 2803 4594 
L 2478 3297 
L 3391 3297 
L 3719 4594 
L 4219 4594 
L 3897 3297 
L 4872 3297 
L 4872 2816 
L 3775 2816 
L 3519 1772 
L 4513 1772 
L 4513 1294 
L 3397 1294 
L 3072 0 
L 2572 0 
L 2894 1294 
L 1978 1294 
L 1656 0 
L 1153 0 
L 1478 1294 
L 494 1294 
L 494 1772 
L 1594 1772 
L 1856 2816 
L 850 2816 
L 850 3297 
L 1978 3297 
L 2297 4594 
L 2803 4594 
z
" id="DejaVuSans-23" transform="scale(0.015625)"/>
       </defs>
       <use xlink:href="#DejaVuSans-53"/>
       <use x="63.476562" xlink:href="#DejaVuSans-4c"/>
       <use x="119.189453" xlink:href="#DejaVuSans-4d"/>
       <use x="205.46875" xlink:href="#DejaVuSans-31"/>
       <use x="269.091797" xlink:href="#DejaVuSans-30"/>
       <use x="332.714844" xlink:href="#DejaVuSans-34"/>
       <use x="396.337891" xlink:href="#DejaVuSans-32"/>
       <use x="459.960938" xlink:href="#DejaVuSans-20"/>
       <use x="491.748047" xlink:href="#DejaVuSans-23"/>
       <use x="575.537109" xlink:href="#DejaVuSans-31"/>
      </g>
     </g>
    </g>
    <g id="xtick_2">
     <g id="line2d_3">
      <path clip-path="url(#p15db9f2732)" d="M 149.297618 293.223593 
L 149.297618 27.6 
" style="fill:none;stroke:#ffffff;stroke-linecap:square;stroke-width:0.8;"/>
     </g>
     <g id="line2d_4">
      <g>
       <use style="fill:#555555;stroke:#555555;stroke-width:0.8;" x="149.297618" xlink:href="#ma0d33badc3" y="293.223593"/>
      </g>
     </g>
     <g id="text_2">
      <!-- DG011 #2 -->
      <g style="fill:#555555;" transform="translate(99.293571 325.304883)rotate(-20)scale(0.1 -0.1)">
       <defs>
        <path d="M 1259 4147 
L 1259 519 
L 2022 519 
Q 2988 519 3436 956 
Q 3884 1394 3884 2338 
Q 3884 3275 3436 3711 
Q 2988 4147 2022 4147 
L 1259 4147 
z
M 628 4666 
L 1925 4666 
Q 3281 4666 3915 4102 
Q 4550 3538 4550 2338 
Q 4550 1131 3912 565 
Q 3275 0 1925 0 
L 628 0 
L 628 4666 
z
" id="DejaVuSans-44" transform="scale(0.015625)"/>
        <path d="M 3809 666 
L 3809 1919 
L 2778 1919 
L 2778 2438 
L 4434 2438 
L 4434 434 
Q 4069 175 3628 42 
Q 3188 -91 2688 -91 
Q 1594 -91 976 548 
Q 359 1188 359 2328 
Q 359 3472 976 4111 
Q 1594 4750 2688 4750 
Q 3144 4750 3555 4637 
Q 3966 4525 4313 4306 
L 4313 3634 
Q 3963 3931 3569 4081 
Q 3175 4231 2741 4231 
Q 1884 4231 1454 3753 
Q 1025 3275 1025 2328 
Q 1025 1384 1454 906 
Q 1884 428 2741 428 
Q 3075 428 3337 486 
Q 3600 544 3809 666 
z
" id="DejaVuSans-47" transform="scale(0.015625)"/>
       </defs>
       <use xlink:href="#DejaVuSans-44"/>
       <use x="77.001953" xlink:href="#DejaVuSans-47"/>
       <use x="154.492188" xlink:href="#DejaVuSans-30"/>
       <use x="218.115234" xlink:href="#DejaVuSans-31"/>
       <use x="281.738281" xlink:href="#DejaVuSans-31"/>
       <use x="345.361328" xlink:href="#DejaVuSans-20"/>
       <use x="377.148438" xlink:href="#DejaVuSans-23"/>
       <use x="460.9375" xlink:href="#DejaVuSans-32"/>
      </g>
     </g>
    </g>
    <g id="xtick_3">
     <g id="line2d_5">
      <path clip-path="url(#p15db9f2732)" d="M 207.272539 293.223593 
L 207.272539 27.6 
" style="fill:none;stroke:#ffffff;stroke-linecap:square;stroke-width:0.8;"/>
     </g>
     <g id="line2d_6">
      <g>
       <use style="fill:#555555;stroke:#555555;stroke-width:0.8;" x="207.272539" xlink:href="#ma0d33badc3" y="293.223593"/>
      </g>
     </g>
     <g id="text_3">
      <!-- DG027 #2 -->
      <g style="fill:#555555;" transform="translate(157.268493 325.304883)rotate(-20)scale(0.1 -0.1)">
       <defs>
        <path d="M 525 4666 
L 3525 4666 
L 3525 4397 
L 1831 0 
L 1172 0 
L 2766 4134 
L 525 4134 
L 525 4666 
z
" id="DejaVuSans-37" transform="scale(0.015625)"/>
       </defs>
       <use xlink:href="#DejaVuSans-44"/>
       <use x="77.001953" xlink:href="#DejaVuSans-47"/>
       <use x="154.492188" xlink:href="#DejaVuSans-30"/>
       <use x="218.115234" xlink:href="#DejaVuSans-32"/>
       <use x="281.738281" xlink:href="#DejaVuSans-37"/>
       <use x="345.361328" xlink:href="#DejaVuSans-20"/>
       <use x="377.148438" xlink:href="#DejaVuSans-23"/>
       <use x="460.9375" xlink:href="#DejaVuSans-32"/>
      </g>
     </g>
    </g>
    <g id="xtick_4">
     <g id="line2d_7">
      <path clip-path="url(#p15db9f2732)" d="M 265.247461 293.223593 
L 265.247461 27.6 
" style="fill:none;stroke:#ffffff;stroke-linecap:square;stroke-width:0.8;"/>
     </g>
     <g id="line2d_8">
      <g>
       <use style="fill:#555555;stroke:#555555;stroke-width:0.8;" x="265.247461" xlink:href="#ma0d33badc3" y="293.223593"/>
      </g>
     </g>
     <g id="text_4">
      <!-- DG028 #3 -->
      <g style="fill:#555555;" transform="translate(215.243415 325.304883)rotate(-20)scale(0.1 -0.1)">
       <defs>
        <path d="M 2034 2216 
Q 1584 2216 1326 1975 
Q 1069 1734 1069 1313 
Q 1069 891 1326 650 
Q 1584 409 2034 409 
Q 2484 409 2743 651 
Q 3003 894 3003 1313 
Q 3003 1734 2745 1975 
Q 2488 2216 2034 2216 
z
M 1403 2484 
Q 997 2584 770 2862 
Q 544 3141 544 3541 
Q 544 4100 942 4425 
Q 1341 4750 2034 4750 
Q 2731 4750 3128 4425 
Q 3525 4100 3525 3541 
Q 3525 3141 3298 2862 
Q 3072 2584 2669 2484 
Q 3125 2378 3379 2068 
Q 3634 1759 3634 1313 
Q 3634 634 3220 271 
Q 2806 -91 2034 -91 
Q 1263 -91 848 271 
Q 434 634 434 1313 
Q 434 1759 690 2068 
Q 947 2378 1403 2484 
z
M 1172 3481 
Q 1172 3119 1398 2916 
Q 1625 2713 2034 2713 
Q 2441 2713 2670 2916 
Q 2900 3119 2900 3481 
Q 2900 3844 2670 4047 
Q 2441 4250 2034 4250 
Q 1625 4250 1398 4047 
Q 1172 3844 1172 3481 
z
" id="DejaVuSans-38" transform="scale(0.015625)"/>
        <path d="M 2597 2516 
Q 3050 2419 3304 2112 
Q 3559 1806 3559 1356 
Q 3559 666 3084 287 
Q 2609 -91 1734 -91 
Q 1441 -91 1130 -33 
Q 819 25 488 141 
L 488 750 
Q 750 597 1062 519 
Q 1375 441 1716 441 
Q 2309 441 2620 675 
Q 2931 909 2931 1356 
Q 2931 1769 2642 2001 
Q 2353 2234 1838 2234 
L 1294 2234 
L 1294 2753 
L 1863 2753 
Q 2328 2753 2575 2939 
Q 2822 3125 2822 3475 
Q 2822 3834 2567 4026 
Q 2313 4219 1838 4219 
Q 1578 4219 1281 4162 
Q 984 4106 628 3988 
L 628 4550 
Q 988 4650 1302 4700 
Q 1616 4750 1894 4750 
Q 2613 4750 3031 4423 
Q 3450 4097 3450 3541 
Q 3450 3153 3228 2886 
Q 3006 2619 2597 2516 
z
" id="DejaVuSans-33" transform="scale(0.015625)"/>
       </defs>
       <use xlink:href="#DejaVuSans-44"/>
       <use x="77.001953" xlink:href="#DejaVuSans-47"/>
       <use x="154.492188" xlink:href="#DejaVuSans-30"/>
       <use x="218.115234" xlink:href="#DejaVuSans-32"/>
       <use x="281.738281" xlink:href="#DejaVuSans-38"/>
       <use x="345.361328" xlink:href="#DejaVuSans-20"/>
       <use x="377.148438" xlink:href="#DejaVuSans-23"/>
       <use x="460.9375" xlink:href="#DejaVuSans-33"/>
      </g>
     </g>
    </g>
    <g id="xtick_5">
     <g id="line2d_9">
      <path clip-path="url(#p15db9f2732)" d="M 323.222382 293.223593 
L 323.222382 27.6 
" style="fill:none;stroke:#ffffff;stroke-linecap:square;stroke-width:0.8;"/>
     </g>
     <g id="line2d_10">
      <g>
       <use style="fill:#555555;stroke:#555555;stroke-width:0.8;" x="323.222382" xlink:href="#ma0d33badc3" y="293.223593"/>
      </g>
     </g>
     <g id="text_5">
      <!-- DG032 #1 -->
      <g style="fill:#555555;" transform="translate(273.218336 325.304883)rotate(-20)scale(0.1 -0.1)">
       <use xlink:href="#DejaVuSans-44"/>
       <use x="77.001953" xlink:href="#DejaVuSans-47"/>
       <use x="154.492188" xlink:href="#DejaVuSans-30"/>
       <use x="218.115234" xlink:href="#DejaVuSans-33"/>
       <use x="281.738281" xlink:href="#DejaVuSans-32"/>
       <use x="345.361328" xlink:href="#DejaVuSans-20"/>
       <use x="377.148438" xlink:href="#DejaVuSans-23"/>
       <use x="460.9375" xlink:href="#DejaVuSans-31"/>
      </g>
     </g>
    </g>
    <g id="xtick_6">
     <g id="line2d_11">
      <path clip-path="url(#p15db9f2732)" d="M 381.197304 293.223593 
L 381.197304 27.6 
" style="fill:none;stroke:#ffffff;stroke-linecap:square;stroke-width:0.8;"/>
     </g>
     <g id="line2d_12">
      <g>
       <use style="fill:#555555;stroke:#555555;stroke-width:0.8;" x="381.197304" xlink:href="#ma0d33badc3" y="293.223593"/>
      </g>
     </g>
     <g id="text_6">
      <!-- DG033 #1 -->
      <g style="fill:#555555;" transform="translate(331.193258 325.304883)rotate(-20)scale(0.1 -0.1)">
       <use xlink:href="#DejaVuSans-44"/>
       <use x="77.001953" xlink:href="#DejaVuSans-47"/>
       <use x="154.492188" xlink:href="#DejaVuSans-30"/>
       <use x="218.115234" xlink:href="#DejaVuSans-33"/>
       <use x="281.738281" xlink:href="#DejaVuSans-33"/>
       <use x="345.361328" xlink:href="#DejaVuSans-20"/>
       <use x="377.148438" xlink:href="#DejaVuSans-23"/>
       <use x="460.9375" xlink:href="#DejaVuSans-31"/>
      </g>
     </g>
    </g>
    <g id="text_7">
     <!-- Strain -->
     <g style="fill:#555555;" transform="translate(215.523594 345.817368)scale(0.14 -0.14)">
      <defs>
       <path d="M 1172 4494 
L 1172 3500 
L 2356 3500 
L 2356 3053 
L 1172 3053 
L 1172 1153 
Q 1172 725 1289 603 
Q 1406 481 1766 481 
L 2356 481 
L 2356 0 
L 1766 0 
Q 1100 0 847 248 
Q 594 497 594 1153 
L 594 3053 
L 172 3053 
L 172 3500 
L 594 3500 
L 594 4494 
L 1172 4494 
z
" id="DejaVuSans-74" transform="scale(0.015625)"/>
       <path d="M 2631 2963 
Q 2534 3019 2420 3045 
Q 2306 3072 2169 3072 
Q 1681 3072 1420 2755 
Q 1159 2438 1159 1844 
L 1159 0 
L 581 0 
L 581 3500 
L 1159 3500 
L 1159 2956 
Q 1341 3275 1631 3429 
Q 1922 3584 2338 3584 
Q 2397 3584 2469 3576 
Q 2541 3569 2628 3553 
L 2631 2963 
z
" id="DejaVuSans-72" transform="scale(0.015625)"/>
       <path d="M 2194 1759 
Q 1497 1759 1228 1600 
Q 959 1441 959 1056 
Q 959 750 1161 570 
Q 1363 391 1709 391 
Q 2188 391 2477 730 
Q 2766 1069 2766 1631 
L 2766 1759 
L 2194 1759 
z
M 3341 1997 
L 3341 0 
L 2766 0 
L 2766 531 
Q 2569 213 2275 61 
Q 1981 -91 1556 -91 
Q 1019 -91 701 211 
Q 384 513 384 1019 
Q 384 1609 779 1909 
Q 1175 2209 1959 2209 
L 2766 2209 
L 2766 2266 
Q 2766 2663 2505 2880 
Q 2244 3097 1772 3097 
Q 1472 3097 1187 3025 
Q 903 2953 641 2809 
L 641 3341 
Q 956 3463 1253 3523 
Q 1550 3584 1831 3584 
Q 2591 3584 2966 3190 
Q 3341 2797 3341 1997 
z
" id="DejaVuSans-61" transform="scale(0.015625)"/>
       <path d="M 603 3500 
L 1178 3500 
L 1178 0 
L 603 0 
L 603 3500 
z
M 603 4863 
L 1178 4863 
L 1178 4134 
L 603 4134 
L 603 4863 
z
" id="DejaVuSans-69" transform="scale(0.015625)"/>
       <path d="M 3513 2113 
L 3513 0 
L 2938 0 
L 2938 2094 
Q 2938 2591 2744 2837 
Q 2550 3084 2163 3084 
Q 1697 3084 1428 2787 
Q 1159 2491 1159 1978 
L 1159 0 
L 581 0 
L 581 3500 
L 1159 3500 
L 1159 2956 
Q 1366 3272 1645 3428 
Q 1925 3584 2291 3584 
Q 2894 3584 3203 3211 
Q 3513 2838 3513 2113 
z
" id="DejaVuSans-6e" transform="scale(0.015625)"/>
      </defs>
      <use xlink:href="#DejaVuSans-53"/>
      <use x="63.476562" xlink:href="#DejaVuSans-74"/>
      <use x="102.685547" xlink:href="#DejaVuSans-72"/>
      <use x="143.798828" xlink:href="#DejaVuSans-61"/>
      <use x="205.078125" xlink:href="#DejaVuSans-69"/>
      <use x="232.861328" xlink:href="#DejaVuSans-6e"/>
     </g>
    </g>
   </g>
   <g id="matplotlib.axis_2">
    <g id="ytick_1">
     <g id="line2d_13">
      <path clip-path="url(#p15db9f2732)" d="M 51.32 293.223593 
L 421.2 293.223593 
" style="fill:none;stroke:#ffffff;stroke-linecap:square;stroke-width:0.8;"/>
     </g>
     <g id="line2d_14">
      <defs>
       <path d="M 0 0 
L -3.5 0 
" id="mdd6431e2fd" style="stroke:#555555;stroke-width:0.8;"/>
      </defs>
      <g>
       <use style="fill:#555555;stroke:#555555;stroke-width:0.8;" x="51.32" xlink:href="#mdd6431e2fd" y="293.223593"/>
      </g>
     </g>
     <g id="text_8">
      <!-- 0.0 -->
      <g style="fill:#555555;" transform="translate(28.416875 297.022812)scale(0.1 -0.1)">
       <defs>
        <path d="M 684 794 
L 1344 794 
L 1344 0 
L 684 0 
L 684 794 
z
" id="DejaVuSans-2e" transform="scale(0.015625)"/>
       </defs>
       <use xlink:href="#DejaVuSans-30"/>
       <use x="63.623047" xlink:href="#DejaVuSans-2e"/>
       <use x="95.410156" xlink:href="#DejaVuSans-30"/>
      </g>
     </g>
    </g>
    <g id="ytick_2">
     <g id="line2d_15">
      <path clip-path="url(#p15db9f2732)" d="M 51.32 243.055473 
L 421.2 243.055473 
" style="fill:none;stroke:#ffffff;stroke-linecap:square;stroke-width:0.8;"/>
     </g>
     <g id="line2d_16">
      <g>
       <use style="fill:#555555;stroke:#555555;stroke-width:0.8;" x="51.32" xlink:href="#mdd6431e2fd" y="243.055473"/>
      </g>
     </g>
     <g id="text_9">
      <!-- 0.2 -->
      <g style="fill:#555555;" transform="translate(28.416875 246.854691)scale(0.1 -0.1)">
       <use xlink:href="#DejaVuSans-30"/>
       <use x="63.623047" xlink:href="#DejaVuSans-2e"/>
       <use x="95.410156" xlink:href="#DejaVuSans-32"/>
      </g>
     </g>
    </g>
    <g id="ytick_3">
     <g id="line2d_17">
      <path clip-path="url(#p15db9f2732)" d="M 51.32 192.887352 
L 421.2 192.887352 
" style="fill:none;stroke:#ffffff;stroke-linecap:square;stroke-width:0.8;"/>
     </g>
     <g id="line2d_18">
      <g>
       <use style="fill:#555555;stroke:#555555;stroke-width:0.8;" x="51.32" xlink:href="#mdd6431e2fd" y="192.887352"/>
      </g>
     </g>
     <g id="text_10">
      <!-- 0.4 -->
      <g style="fill:#555555;" transform="translate(28.416875 196.686571)scale(0.1 -0.1)">
       <use xlink:href="#DejaVuSans-30"/>
       <use x="63.623047" xlink:href="#DejaVuSans-2e"/>
       <use x="95.410156" xlink:href="#DejaVuSans-34"/>
      </g>
     </g>
    </g>
    <g id="ytick_4">
     <g id="line2d_19">
      <path clip-path="url(#p15db9f2732)" d="M 51.32 142.719232 
L 421.2 142.719232 
" style="fill:none;stroke:#ffffff;stroke-linecap:square;stroke-width:0.8;"/>
     </g>
     <g id="line2d_20">
      <g>
       <use style="fill:#555555;stroke:#555555;stroke-width:0.8;" x="51.32" xlink:href="#mdd6431e2fd" y="142.719232"/>
      </g>
     </g>
     <g id="text_11">
      <!-- 0.6 -->
      <g style="fill:#555555;" transform="translate(28.416875 146.518451)scale(0.1 -0.1)">
       <defs>
        <path d="M 2113 2584 
Q 1688 2584 1439 2293 
Q 1191 2003 1191 1497 
Q 1191 994 1439 701 
Q 1688 409 2113 409 
Q 2538 409 2786 701 
Q 3034 994 3034 1497 
Q 3034 2003 2786 2293 
Q 2538 2584 2113 2584 
z
M 3366 4563 
L 3366 3988 
Q 3128 4100 2886 4159 
Q 2644 4219 2406 4219 
Q 1781 4219 1451 3797 
Q 1122 3375 1075 2522 
Q 1259 2794 1537 2939 
Q 1816 3084 2150 3084 
Q 2853 3084 3261 2657 
Q 3669 2231 3669 1497 
Q 3669 778 3244 343 
Q 2819 -91 2113 -91 
Q 1303 -91 875 529 
Q 447 1150 447 2328 
Q 447 3434 972 4092 
Q 1497 4750 2381 4750 
Q 2619 4750 2861 4703 
Q 3103 4656 3366 4563 
z
" id="DejaVuSans-36" transform="scale(0.015625)"/>
       </defs>
       <use xlink:href="#DejaVuSans-30"/>
       <use x="63.623047" xlink:href="#DejaVuSans-2e"/>
       <use x="95.410156" xlink:href="#DejaVuSans-36"/>
      </g>
     </g>
    </g>
    <g id="ytick_5">
     <g id="line2d_21">
      <path clip-path="url(#p15db9f2732)" d="M 51.32 92.551112 
L 421.2 92.551112 
" style="fill:none;stroke:#ffffff;stroke-linecap:square;stroke-width:0.8;"/>
     </g>
     <g id="line2d_22">
      <g>
       <use style="fill:#555555;stroke:#555555;stroke-width:0.8;" x="51.32" xlink:href="#mdd6431e2fd" y="92.551112"/>
      </g>
     </g>
     <g id="text_12">
      <!-- 0.8 -->
      <g style="fill:#555555;" transform="translate(28.416875 96.35033)scale(0.1 -0.1)">
       <use xlink:href="#DejaVuSans-30"/>
       <use x="63.623047" xlink:href="#DejaVuSans-2e"/>
       <use x="95.410156" xlink:href="#DejaVuSans-38"/>
      </g>
     </g>
    </g>
    <g id="ytick_6">
     <g id="line2d_23">
      <path clip-path="url(#p15db9f2732)" d="M 51.32 42.382991 
L 421.2 42.382991 
" style="fill:none;stroke:#ffffff;stroke-linecap:square;stroke-width:0.8;"/>
     </g>
     <g id="line2d_24">
      <g>
       <use style="fill:#555555;stroke:#555555;stroke-width:0.8;" x="51.32" xlink:href="#mdd6431e2fd" y="42.382991"/>
      </g>
     </g>
     <g id="text_13">
      <!-- 1.0 -->
      <g style="fill:#555555;" transform="translate(28.416875 46.18221)scale(0.1 -0.1)">
       <use xlink:href="#DejaVuSans-31"/>
       <use x="63.623047" xlink:href="#DejaVuSans-2e"/>
       <use x="95.410156" xlink:href="#DejaVuSans-30"/>
      </g>
     </g>
    </g>
    <g id="text_14">
     <!-- Mutation Rate -->
     <g style="fill:#555555;" transform="translate(21.505313 209.602109)rotate(-90)scale(0.14 -0.14)">
      <defs>
       <path d="M 544 1381 
L 544 3500 
L 1119 3500 
L 1119 1403 
Q 1119 906 1312 657 
Q 1506 409 1894 409 
Q 2359 409 2629 706 
Q 2900 1003 2900 1516 
L 2900 3500 
L 3475 3500 
L 3475 0 
L 2900 0 
L 2900 538 
Q 2691 219 2414 64 
Q 2138 -91 1772 -91 
Q 1169 -91 856 284 
Q 544 659 544 1381 
z
M 1991 3584 
L 1991 3584 
z
" id="DejaVuSans-75" transform="scale(0.015625)"/>
       <path d="M 1959 3097 
Q 1497 3097 1228 2736 
Q 959 2375 959 1747 
Q 959 1119 1226 758 
Q 1494 397 1959 397 
Q 2419 397 2687 759 
Q 2956 1122 2956 1747 
Q 2956 2369 2687 2733 
Q 2419 3097 1959 3097 
z
M 1959 3584 
Q 2709 3584 3137 3096 
Q 3566 2609 3566 1747 
Q 3566 888 3137 398 
Q 2709 -91 1959 -91 
Q 1206 -91 779 398 
Q 353 888 353 1747 
Q 353 2609 779 3096 
Q 1206 3584 1959 3584 
z
" id="DejaVuSans-6f" transform="scale(0.015625)"/>
       <path d="M 2841 2188 
Q 3044 2119 3236 1894 
Q 3428 1669 3622 1275 
L 4263 0 
L 3584 0 
L 2988 1197 
Q 2756 1666 2539 1819 
Q 2322 1972 1947 1972 
L 1259 1972 
L 1259 0 
L 628 0 
L 628 4666 
L 2053 4666 
Q 2853 4666 3247 4331 
Q 3641 3997 3641 3322 
Q 3641 2881 3436 2590 
Q 3231 2300 2841 2188 
z
M 1259 4147 
L 1259 2491 
L 2053 2491 
Q 2509 2491 2742 2702 
Q 2975 2913 2975 3322 
Q 2975 3731 2742 3939 
Q 2509 4147 2053 4147 
L 1259 4147 
z
" id="DejaVuSans-52" transform="scale(0.015625)"/>
       <path d="M 3597 1894 
L 3597 1613 
L 953 1613 
Q 991 1019 1311 708 
Q 1631 397 2203 397 
Q 2534 397 2845 478 
Q 3156 559 3463 722 
L 3463 178 
Q 3153 47 2828 -22 
Q 2503 -91 2169 -91 
Q 1331 -91 842 396 
Q 353 884 353 1716 
Q 353 2575 817 3079 
Q 1281 3584 2069 3584 
Q 2775 3584 3186 3129 
Q 3597 2675 3597 1894 
z
M 3022 2063 
Q 3016 2534 2758 2815 
Q 2500 3097 2075 3097 
Q 1594 3097 1305 2825 
Q 1016 2553 972 2059 
L 3022 2063 
z
" id="DejaVuSans-65" transform="scale(0.015625)"/>
      </defs>
      <use xlink:href="#DejaVuSans-4d"/>
      <use x="86.279297" xlink:href="#DejaVuSans-75"/>
      <use x="149.658203" xlink:href="#DejaVuSans-74"/>
      <use x="188.867188" xlink:href="#DejaVuSans-61"/>
      <use x="250.146484" xlink:href="#DejaVuSans-74"/>
      <use x="289.355469" xlink:href="#DejaVuSans-69"/>
      <use x="317.138672" xlink:href="#DejaVuSans-6f"/>
      <use x="378.320312" xlink:href="#DejaVuSans-6e"/>
      <use x="441.699219" xlink:href="#DejaVuSans-20"/>
      <use x="473.486328" xlink:href="#DejaVuSans-52"/>
      <use x="540.71875" xlink:href="#DejaVuSans-61"/>
      <use x="601.998047" xlink:href="#DejaVuSans-74"/>
      <use x="641.207031" xlink:href="#DejaVuSans-65"/>
     </g>
    </g>
    <g id="text_15">
     <!-- 1e−5 -->
     <g style="fill:#555555;" transform="translate(51.32 24.6)scale(0.1 -0.1)">
      <defs>
       <path d="M 678 2272 
L 4684 2272 
L 4684 1741 
L 678 1741 
L 678 2272 
z
" id="DejaVuSans-2212" transform="scale(0.015625)"/>
       <path d="M 691 4666 
L 3169 4666 
L 3169 4134 
L 1269 4134 
L 1269 2991 
Q 1406 3038 1543 3061 
Q 1681 3084 1819 3084 
Q 2600 3084 3056 2656 
Q 3513 2228 3513 1497 
Q 3513 744 3044 326 
Q 2575 -91 1722 -91 
Q 1428 -91 1123 -41 
Q 819 9 494 109 
L 494 744 
Q 775 591 1075 516 
Q 1375 441 1709 441 
Q 2250 441 2565 725 
Q 2881 1009 2881 1497 
Q 2881 1984 2565 2268 
Q 2250 2553 1709 2553 
Q 1456 2553 1204 2497 
Q 953 2441 691 2322 
L 691 4666 
z
" id="DejaVuSans-35" transform="scale(0.015625)"/>
      </defs>
      <use xlink:href="#DejaVuSans-31"/>
      <use x="63.623047" xlink:href="#DejaVuSans-65"/>
      <use x="125.146484" xlink:href="#DejaVuSans-2212"/>
      <use x="208.935547" xlink:href="#DejaVuSans-35"/>
     </g>
    </g>
   </g>
   <g id="patch_3">
    <path clip-path="url(#p15db9f2732)" d="M 68.132727 293.223593 
L 114.512665 293.223593 
L 114.512665 80.468503 
L 68.132727 80.468503 
z
" style="fill:#4169e1;"/>
   </g>
   <g id="patch_4">
    <path clip-path="url(#p15db9f2732)" d="M 126.107649 293.223593 
L 172.487586 293.223593 
L 172.487586 277.078093 
L 126.107649 277.078093 
z
" style="fill:#9932cc;"/>
   </g>
   <g id="patch_5">
    <path clip-path="url(#p15db9f2732)" d="M 184.082571 293.223593 
L 230.462508 293.223593 
L 230.462508 195.042682 
L 184.082571 195.042682 
z
" style="fill:#b22222;"/>
   </g>
   <g id="patch_6">
    <path clip-path="url(#p15db9f2732)" d="M 242.057492 293.223593 
L 288.437429 293.223593 
L 288.437429 253.941662 
L 242.057492 253.941662 
z
" style="fill:#006400;"/>
   </g>
   <g id="patch_7">
    <path clip-path="url(#p15db9f2732)" d="M 300.032414 293.223593 
L 346.412351 293.223593 
L 346.412351 238.019464 
L 300.032414 238.019464 
z
" style="fill:#8b0000;"/>
   </g>
   <g id="patch_8">
    <path clip-path="url(#p15db9f2732)" d="M 358.007335 293.223593 
L 404.387273 293.223593 
L 404.387273 232.401358 
L 358.007335 232.401358 
z
" style="fill:#000080;"/>
   </g>
   <g id="LineCollection_1">
    <path clip-path="url(#p15db9f2732)" d="M 91.322696 120.688264 
L 91.322696 40.248743 
" style="fill:none;stroke:#000000;stroke-width:1.5;"/>
    <path clip-path="url(#p15db9f2732)" d="M 149.297618 280.99258 
L 149.297618 273.163606 
" style="fill:none;stroke:#000000;stroke-width:1.5;"/>
    <path clip-path="url(#p15db9f2732)" d="M 207.272539 216.247195 
L 207.272539 173.838168 
" style="fill:none;stroke:#000000;stroke-width:1.5;"/>
    <path clip-path="url(#p15db9f2732)" d="M 265.247461 262.619184 
L 265.247461 245.26414 
" style="fill:none;stroke:#000000;stroke-width:1.5;"/>
    <path clip-path="url(#p15db9f2732)" d="M 323.222382 251.208431 
L 323.222382 224.830496 
" style="fill:none;stroke:#000000;stroke-width:1.5;"/>
    <path clip-path="url(#p15db9f2732)" d="M 381.197304 245.262134 
L 381.197304 219.540582 
" style="fill:none;stroke:#000000;stroke-width:1.5;"/>
   </g>
   <g id="line2d_25">
    <defs>
     <path d="M 5 0 
L -5 -0 
" id="m146c4da35e" style="stroke:#000000;"/>
    </defs>
    <g clip-path="url(#p15db9f2732)">
     <use style="stroke:#000000;" x="91.322696" xlink:href="#m146c4da35e" y="120.688264"/>
     <use style="stroke:#000000;" x="149.297618" xlink:href="#m146c4da35e" y="280.99258"/>
     <use style="stroke:#000000;" x="207.272539" xlink:href="#m146c4da35e" y="216.247195"/>
     <use style="stroke:#000000;" x="265.247461" xlink:href="#m146c4da35e" y="262.619184"/>
     <use style="stroke:#000000;" x="323.222382" xlink:href="#m146c4da35e" y="251.208431"/>
     <use style="stroke:#000000;" x="381.197304" xlink:href="#m146c4da35e" y="245.262134"/>
    </g>
   </g>
   <g id="line2d_26">
    <g clip-path="url(#p15db9f2732)">
     <use style="stroke:#000000;" x="91.322696" xlink:href="#m146c4da35e" y="40.248743"/>
     <use style="stroke:#000000;" x="149.297618" xlink:href="#m146c4da35e" y="273.163606"/>
     <use style="stroke:#000000;" x="207.272539" xlink:href="#m146c4da35e" y="173.838168"/>
     <use style="stroke:#000000;" x="265.247461" xlink:href="#m146c4da35e" y="245.26414"/>
     <use style="stroke:#000000;" x="323.222382" xlink:href="#m146c4da35e" y="224.830496"/>
     <use style="stroke:#000000;" x="381.197304" xlink:href="#m146c4da35e" y="219.540582"/>
    </g>
   </g>
   <g id="patch_9">
    <path d="M 51.32 293.223593 
L 51.32 27.6 
" style="fill:none;stroke:#ffffff;stroke-linecap:square;stroke-linejoin:miter;"/>
   </g>
   <g id="patch_10">
    <path d="M 421.2 293.223593 
L 421.2 27.6 
" style="fill:none;stroke:#ffffff;stroke-linecap:square;stroke-linejoin:miter;"/>
   </g>
   <g id="patch_11">
    <path d="M 51.32 293.223593 
L 421.2 293.223593 
" style="fill:none;stroke:#ffffff;stroke-linecap:square;stroke-linejoin:miter;"/>
   </g>
   <g id="patch_12">
    <path d="M 51.32 27.6 
L 421.2 27.6 
" style="fill:none;stroke:#ffffff;stroke-linecap:square;stroke-linejoin:miter;"/>
   </g>
   <g id="text_16">
    <!-- Inactivation of Tus on recombination rates -->
    <g transform="translate(84.622375 21.6)scale(0.144 -0.144)">
     <defs>
      <path d="M 628 4666 
L 1259 4666 
L 1259 0 
L 628 0 
L 628 4666 
z
" id="DejaVuSans-49" transform="scale(0.015625)"/>
      <path d="M 3122 3366 
L 3122 2828 
Q 2878 2963 2633 3030 
Q 2388 3097 2138 3097 
Q 1578 3097 1268 2742 
Q 959 2388 959 1747 
Q 959 1106 1268 751 
Q 1578 397 2138 397 
Q 2388 397 2633 464 
Q 2878 531 3122 666 
L 3122 134 
Q 2881 22 2623 -34 
Q 2366 -91 2075 -91 
Q 1284 -91 818 406 
Q 353 903 353 1747 
Q 353 2603 823 3093 
Q 1294 3584 2113 3584 
Q 2378 3584 2631 3529 
Q 2884 3475 3122 3366 
z
" id="DejaVuSans-63" transform="scale(0.015625)"/>
      <path d="M 191 3500 
L 800 3500 
L 1894 563 
L 2988 3500 
L 3597 3500 
L 2284 0 
L 1503 0 
L 191 3500 
z
" id="DejaVuSans-76" transform="scale(0.015625)"/>
      <path d="M 2375 4863 
L 2375 4384 
L 1825 4384 
Q 1516 4384 1395 4259 
Q 1275 4134 1275 3809 
L 1275 3500 
L 2222 3500 
L 2222 3053 
L 1275 3053 
L 1275 0 
L 697 0 
L 697 3053 
L 147 3053 
L 147 3500 
L 697 3500 
L 697 3744 
Q 697 4328 969 4595 
Q 1241 4863 1831 4863 
L 2375 4863 
z
" id="DejaVuSans-66" transform="scale(0.015625)"/>
      <path d="M -19 4666 
L 3928 4666 
L 3928 4134 
L 2272 4134 
L 2272 0 
L 1638 0 
L 1638 4134 
L -19 4134 
L -19 4666 
z
" id="DejaVuSans-54" transform="scale(0.015625)"/>
      <path d="M 2834 3397 
L 2834 2853 
Q 2591 2978 2328 3040 
Q 2066 3103 1784 3103 
Q 1356 3103 1142 2972 
Q 928 2841 928 2578 
Q 928 2378 1081 2264 
Q 1234 2150 1697 2047 
L 1894 2003 
Q 2506 1872 2764 1633 
Q 3022 1394 3022 966 
Q 3022 478 2636 193 
Q 2250 -91 1575 -91 
Q 1294 -91 989 -36 
Q 684 19 347 128 
L 347 722 
Q 666 556 975 473 
Q 1284 391 1588 391 
Q 1994 391 2212 530 
Q 2431 669 2431 922 
Q 2431 1156 2273 1281 
Q 2116 1406 1581 1522 
L 1381 1569 
Q 847 1681 609 1914 
Q 372 2147 372 2553 
Q 372 3047 722 3315 
Q 1072 3584 1716 3584 
Q 2034 3584 2315 3537 
Q 2597 3491 2834 3397 
z
" id="DejaVuSans-73" transform="scale(0.015625)"/>
      <path d="M 3328 2828 
Q 3544 3216 3844 3400 
Q 4144 3584 4550 3584 
Q 5097 3584 5394 3201 
Q 5691 2819 5691 2113 
L 5691 0 
L 5113 0 
L 5113 2094 
Q 5113 2597 4934 2840 
Q 4756 3084 4391 3084 
Q 3944 3084 3684 2787 
Q 3425 2491 3425 1978 
L 3425 0 
L 2847 0 
L 2847 2094 
Q 2847 2600 2669 2842 
Q 2491 3084 2119 3084 
Q 1678 3084 1418 2786 
Q 1159 2488 1159 1978 
L 1159 0 
L 581 0 
L 581 3500 
L 1159 3500 
L 1159 2956 
Q 1356 3278 1631 3431 
Q 1906 3584 2284 3584 
Q 2666 3584 2933 3390 
Q 3200 3197 3328 2828 
z
" id="DejaVuSans-6d" transform="scale(0.015625)"/>
      <path d="M 3116 1747 
Q 3116 2381 2855 2742 
Q 2594 3103 2138 3103 
Q 1681 3103 1420 2742 
Q 1159 2381 1159 1747 
Q 1159 1113 1420 752 
Q 1681 391 2138 391 
Q 2594 391 2855 752 
Q 3116 1113 3116 1747 
z
M 1159 2969 
Q 1341 3281 1617 3432 
Q 1894 3584 2278 3584 
Q 2916 3584 3314 3078 
Q 3713 2572 3713 1747 
Q 3713 922 3314 415 
Q 2916 -91 2278 -91 
Q 1894 -91 1617 61 
Q 1341 213 1159 525 
L 1159 0 
L 581 0 
L 581 4863 
L 1159 4863 
L 1159 2969 
z
" id="DejaVuSans-62" transform="scale(0.015625)"/>
     </defs>
     <use xlink:href="#DejaVuSans-49"/>
     <use x="29.492188" xlink:href="#DejaVuSans-6e"/>
     <use x="92.871094" xlink:href="#DejaVuSans-61"/>
     <use x="154.150391" xlink:href="#DejaVuSans-63"/>
     <use x="209.130859" xlink:href="#DejaVuSans-74"/>
     <use x="248.339844" xlink:href="#DejaVuSans-69"/>
     <use x="276.123047" xlink:href="#DejaVuSans-76"/>
     <use x="335.302734" xlink:href="#DejaVuSans-61"/>
     <use x="396.582031" xlink:href="#DejaVuSans-74"/>
     <use x="435.791016" xlink:href="#DejaVuSans-69"/>
     <use x="463.574219" xlink:href="#DejaVuSans-6f"/>
     <use x="524.755859" xlink:href="#DejaVuSans-6e"/>
     <use x="588.134766" xlink:href="#DejaVuSans-20"/>
     <use x="619.921875" xlink:href="#DejaVuSans-6f"/>
     <use x="681.103516" xlink:href="#DejaVuSans-66"/>
     <use x="716.308594" xlink:href="#DejaVuSans-20"/>
     <use x="748.095703" xlink:href="#DejaVuSans-54"/>
     <use x="794.054688" xlink:href="#DejaVuSans-75"/>
     <use x="857.433594" xlink:href="#DejaVuSans-73"/>
     <use x="909.533203" xlink:href="#DejaVuSans-20"/>
     <use x="941.320312" xlink:href="#DejaVuSans-6f"/>
     <use x="1002.501953" xlink:href="#DejaVuSans-6e"/>
     <use x="1065.880859" xlink:href="#DejaVuSans-20"/>
     <use x="1097.667969" xlink:href="#DejaVuSans-72"/>
     <use x="1136.53125" xlink:href="#DejaVuSans-65"/>
     <use x="1198.054688" xlink:href="#DejaVuSans-63"/>
     <use x="1253.035156" xlink:href="#DejaVuSans-6f"/>
     <use x="1314.216797" xlink:href="#DejaVuSans-6d"/>
     <use x="1411.628906" xlink:href="#DejaVuSans-62"/>
     <use x="1475.105469" xlink:href="#DejaVuSans-69"/>
     <use x="1502.888672" xlink:href="#DejaVuSans-6e"/>
     <use x="1566.267578" xlink:href="#DejaVuSans-61"/>
     <use x="1627.546875" xlink:href="#DejaVuSans-74"/>
     <use x="1666.755859" xlink:href="#DejaVuSans-69"/>
     <use x="1694.539062" xlink:href="#DejaVuSans-6f"/>
     <use x="1755.720703" xlink:href="#DejaVuSans-6e"/>
     <use x="1819.099609" xlink:href="#DejaVuSans-20"/>
     <use x="1850.886719" xlink:href="#DejaVuSans-72"/>
     <use x="1892" xlink:href="#DejaVuSans-61"/>
     <use x="1953.279297" xlink:href="#DejaVuSans-74"/>
     <use x="1992.488281" xlink:href="#DejaVuSans-65"/>
     <use x="2054.011719" xlink:href="#DejaVuSans-73"/>
    </g>
   </g>
   <g id="legend_1">
    <g id="patch_13">
     <path d="M 405.8 45.8 
L 411.4 45.8 
Q 414.2 45.8 414.2 43 
L 414.2 37.4 
Q 414.2 34.6 411.4 34.6 
L 405.8 34.6 
Q 403 34.6 403 37.4 
L 403 43 
Q 403 45.8 405.8 45.8 
z
" style="fill:#e5e5e5;opacity:0.8;stroke:#cccccc;stroke-linejoin:miter;stroke-width:0.5;"/>
    </g>
   </g>
  </g>
 </g>
 <defs>
  <clipPath id="p15db9f2732">
   <rect height="265.623593" width="369.88" x="51.32" y="27.6"/>
  </clipPath>
 </defs>
</svg>
